<?xml version="1.0" encoding="UTF-8"?>
<svg id="Layer_1" data-name="Layer 1" xmlns="http://www.w3.org/2000/svg" xmlns:xlink="http://www.w3.org/1999/xlink" viewBox="0 0 641 641">
  <defs>
    <style>
      .cls-1 {
        fill: url(#linear-gradient-2);
      }

      .cls-2 {
        fill: url(#linear-gradient);
      }
    </style>
    <linearGradient id="linear-gradient" x1="137.84" y1="129.58" x2="480.13" y2="466.81" gradientUnits="userSpaceOnUse">
      <stop offset=".07" stop-color="#18b284"/>
      <stop offset=".98" stop-color="#0f7f6f"/>
    </linearGradient>
    <linearGradient id="linear-gradient-2" x1="132.4" y1="135.17" x2="474.63" y2="472.34" xlink:href="#linear-gradient"/>
  </defs>
  <path class="cls-2" d="M325.32,218.58c-2.01-1.72-4.87-1.72-6.88,0-15.19,13.09-40.22,28.85-76.53,33.53v74.41c-.1,29.71-.19,66.48,79.97,101.83,80.06-35.44,79.97-72.12,79.87-101.83v-74.41c-36.31-4.68-61.34-20.44-76.43-33.53ZM368.99,307.8l-48.92,46.71c-2.77,2.67-6.31,4.01-9.84,4.01s-6.97-1.24-9.75-3.82l-24.46-22.54c-5.83-5.35-6.21-14.42-.86-20.25,5.45-5.73,14.43-6.11,20.25-.76l14.62,13.37,39.17-37.44c5.64-5.44,14.71-5.25,20.25.48,5.45,5.64,5.25,14.71-.48,20.25Z"/>
  <path class="cls-1" d="M410.83,64.5h-180.67c-91.53,0-165.67,74.13-165.67,165.64v180.73c0,91.41,74.14,165.64,165.67,165.64h180.67c91.53,0,165.67-74.22,165.67-165.64v-180.73c0-91.51-74.14-165.64-165.67-165.64ZM327.43,457.1c-1.72.76-3.63,1.15-5.54,1.15s-3.82-.38-5.54-1.15c-103.37-43.46-103.18-95.9-103.09-130.67v-87.4c0-7.64,6.02-13.95,13.66-14.33,35.54-1.62,59.14-16.05,72.71-27.8,12.9-11.18,31.62-11.18,44.52,0,13.47,11.84,37.07,26.17,72.61,27.8,7.64.38,13.66,6.69,13.66,14.33v87.4c.1,34.67.29,87.12-102.99,130.67Z"/>
  <path d="M430.42,326.42v-87.4c0-7.64-6.02-13.95-13.66-14.33-35.54-1.62-59.14-15.95-72.61-27.8-12.9-11.18-31.62-11.18-44.52,0-13.57,11.75-37.17,26.17-72.71,27.8-7.64.38-13.66,6.69-13.66,14.33v87.4c-.1,34.77-.29,87.21,103.09,130.67,1.72.76,3.63,1.15,5.54,1.15s3.82-.38,5.54-1.15c103.28-43.56,103.09-96,102.99-130.67ZM401.76,326.52c.1,29.71.19,66.39-79.87,101.83-80.16-35.34-80.06-72.12-79.97-101.83v-74.41c36.31-4.68,61.34-20.44,76.53-33.53,2.01-1.72,4.87-1.72,6.88,0,15.1,13.09,40.13,28.85,76.43,33.53v74.41Z"/>
  <path d="M368.99,307.8l-48.92,46.71c-2.77,2.67-6.31,4.01-9.84,4.01s-6.97-1.24-9.75-3.82l-24.46-22.54c-5.83-5.35-6.21-14.42-.86-20.25,5.45-5.73,14.43-6.11,20.25-.76l14.62,13.37,39.17-37.44c5.64-5.44,14.71-5.25,20.25.48,5.45,5.64,5.25,14.71-.48,20.25Z"/>
</svg>